<svg width="1166" height="1286" viewBox="0 0 1166 1286" fill="none" xmlns="http://www.w3.org/2000/svg">
    <path
        d="M582.999 199.551C561.499 199.551 543.999 216.951 543.999 238.551H621.899C621.999 217.051 604.499 199.551 582.999 199.551Z"
        fill="#1A1A1A" />
    <path
        d="M582.999 191.751C573.699 191.751 564.099 194.551 556.499 200.051C554.399 201.551 552.299 203.151 550.499 204.951C548.599 206.751 546.999 208.751 545.399 210.851C542.599 214.551 540.499 218.651 538.899 222.951C537.099 227.851 536.199 233.351 536.199 238.551C536.199 242.751 539.799 246.351 543.999 246.351C546.599 246.351 549.199 246.351 551.799 246.351C557.999 246.351 564.199 246.351 570.399 246.351C577.899 246.351 585.399 246.351 592.899 246.351C599.399 246.351 605.899 246.351 612.399 246.351C615.599 246.351 618.699 246.351 621.899 246.351H621.999C626.199 246.351 629.899 242.751 629.799 238.551C629.799 229.251 626.999 219.651 621.499 212.051C619.999 209.951 618.399 207.851 616.599 206.051C614.799 204.151 612.799 202.551 610.699 200.951C606.999 198.151 602.899 196.051 598.599 194.451C593.699 192.651 588.299 191.751 582.999 191.751C580.999 191.751 578.899 192.651 577.499 194.051C576.099 195.451 575.099 197.651 575.199 199.551C575.399 203.851 578.599 207.351 582.999 207.351C584.699 207.351 586.499 207.451 588.199 207.651C587.499 207.551 586.799 207.451 586.099 207.351C589.499 207.851 592.899 208.751 596.099 210.051C595.499 209.751 594.899 209.551 594.199 209.251C597.299 210.551 600.199 212.251 602.899 214.351C602.399 213.951 601.799 213.551 601.299 213.151C603.899 215.151 606.199 217.451 608.199 220.051C607.799 219.551 607.399 218.951 606.999 218.451C609.099 221.151 610.799 224.051 612.099 227.151C611.799 226.551 611.599 225.951 611.299 225.251C612.599 228.451 613.499 231.751 613.999 235.251C613.899 234.551 613.799 233.851 613.699 233.151C613.899 234.851 613.999 236.651 613.999 238.351C616.599 235.751 619.199 233.151 621.799 230.551C619.199 230.551 616.599 230.551 613.999 230.551C607.799 230.551 601.599 230.551 595.399 230.551C587.899 230.551 580.399 230.551 572.899 230.551C566.399 230.551 559.899 230.551 553.399 230.551C550.199 230.551 547.099 230.451 543.899 230.551H543.799C546.399 233.151 548.999 235.751 551.599 238.351C551.599 236.651 551.699 234.851 551.899 233.151C551.799 233.851 551.699 234.551 551.599 235.251C552.099 231.851 552.999 228.451 554.299 225.251C553.999 225.851 553.799 226.451 553.499 227.151C554.799 224.051 556.499 221.151 558.599 218.451C558.199 218.951 557.799 219.551 557.399 220.051C559.399 217.451 561.699 215.151 564.299 213.151C563.799 213.551 563.199 213.951 562.699 214.351C565.399 212.251 568.299 210.551 571.399 209.251C570.799 209.551 570.199 209.751 569.499 210.051C572.699 208.751 575.999 207.851 579.499 207.351C578.799 207.451 578.099 207.551 577.399 207.651C579.099 207.451 580.899 207.351 582.599 207.351C584.599 207.351 586.699 206.451 588.099 205.051C589.499 203.651 590.499 201.451 590.399 199.551C590.699 195.351 587.399 191.751 582.999 191.751Z"
        fill="black" />
    <path
        d="M582.999 199.551C561.499 199.551 543.999 216.951 543.999 238.551H621.899C621.999 217.051 604.499 199.551 582.999 199.551Z"
        fill="#1A1A1A" />
    <g opacity="0.1">
        <path
            d="M579.599 209.051C580.899 211.351 578.599 215.051 574.399 217.451C570.199 219.851 565.799 219.951 564.499 217.751C563.199 215.451 565.499 211.751 569.699 209.351C573.899 206.851 578.299 206.751 579.599 209.051Z"
            fill="white" />
    </g>
    <g opacity="0.1">
        <path
            d="M562.199 222.051C562.199 223.751 560.899 225.051 559.199 225.051C557.499 225.051 556.199 223.751 556.199 222.051C556.199 220.351 557.499 219.051 559.199 219.051C560.899 219.051 562.199 220.451 562.199 222.051Z"
            fill="white" />
    </g>
    <path d="M587.199 70.5511H578.799V202.251H587.199V70.5511Z" fill="#1A1A1A" />
    <path
        d="M587.199 194.351C584.399 194.351 581.599 194.351 578.799 194.351C581.399 196.951 583.999 199.551 586.599 202.151C586.599 200.951 586.599 199.851 586.599 198.651C586.599 195.451 586.599 192.251 586.599 189.051C586.599 184.351 586.599 179.651 586.599 174.851C586.599 169.051 586.599 163.351 586.599 157.551C586.599 151.251 586.599 144.951 586.599 138.651C586.599 132.251 586.599 125.851 586.599 119.451C586.599 113.551 586.599 107.551 586.599 101.651C586.599 96.6512 586.599 91.6512 586.599 86.6512C586.599 83.0512 586.599 79.4512 586.599 75.8512C586.599 74.1512 586.599 72.4513 586.599 70.7513C586.599 70.6513 586.599 70.6511 586.599 70.5511C583.999 73.1511 581.399 75.7512 578.799 78.3512C581.599 78.3512 584.399 78.3512 587.199 78.3512C584.599 75.7512 581.999 73.1511 579.399 70.5511C579.399 71.7511 579.399 72.8511 579.399 74.0511C579.399 77.2511 579.399 80.4512 579.399 83.6512C579.399 88.3512 579.399 93.0512 579.399 97.8512C579.399 103.651 579.399 109.351 579.399 115.151C579.399 121.451 579.399 127.751 579.399 134.051C579.399 140.451 579.399 146.851 579.399 153.251C579.399 159.151 579.399 165.151 579.399 171.051C579.399 176.051 579.399 181.051 579.399 186.051C579.399 189.651 579.399 193.251 579.399 196.851C579.399 198.551 579.399 200.251 579.399 201.951C579.399 202.051 579.399 202.051 579.399 202.151C579.399 204.151 580.299 206.251 581.699 207.651C583.099 209.051 585.299 210.051 587.199 209.951C591.399 209.751 594.999 206.551 594.999 202.151C594.999 200.951 594.999 199.851 594.999 198.651C594.999 195.451 594.999 192.251 594.999 189.051C594.999 184.351 594.999 179.651 594.999 174.851C594.999 169.051 594.999 163.351 594.999 157.551C594.999 151.251 594.999 144.951 594.999 138.651C594.999 132.251 594.999 125.851 594.999 119.451C594.999 113.551 594.999 107.551 594.999 101.651C594.999 96.6512 594.999 91.6512 594.999 86.6512C594.999 83.0512 594.999 79.4512 594.999 75.8512C594.999 74.1512 594.999 72.4513 594.999 70.7513C594.999 70.6513 594.999 70.6511 594.999 70.5511C594.999 66.3511 591.399 62.7513 587.199 62.7513C584.399 62.7513 581.599 62.7513 578.799 62.7513C574.599 62.7513 570.999 66.3511 570.999 70.5511C570.999 71.7511 570.999 72.8511 570.999 74.0511C570.999 77.2511 570.999 80.4512 570.999 83.6512C570.999 88.3512 570.999 93.0512 570.999 97.8512C570.999 103.651 570.999 109.351 570.999 115.151C570.999 121.451 570.999 127.751 570.999 134.051C570.999 140.451 570.999 146.851 570.999 153.251C570.999 159.151 570.999 165.151 570.999 171.051C570.999 176.051 570.999 181.051 570.999 186.051C570.999 189.651 570.999 193.251 570.999 196.851C570.999 198.551 570.999 200.251 570.999 201.951C570.999 202.051 570.999 202.051 570.999 202.151C570.999 206.351 574.599 209.951 578.799 209.951C581.599 209.951 584.399 209.951 587.199 209.951C589.199 209.951 591.299 209.051 592.699 207.651C594.099 206.251 595.099 204.051 594.999 202.151C594.899 197.951 591.599 194.351 587.199 194.351Z"
        fill="black" />
    <path d="M587.199 70.5511H578.799V202.251H587.199V70.5511Z" fill="#1A1A1A" />
    <path
        d="M582.999 70.5511C600.175 70.5511 614.099 56.6273 614.099 39.4513C614.099 22.2752 600.175 8.3512 582.999 8.3512C565.823 8.3512 551.899 22.2752 551.899 39.4513C551.899 56.6273 565.823 70.5511 582.999 70.5511Z"
        fill="black" />
    <path
        d="M606.199 39.4514C606.199 40.8514 606.099 42.1512 605.899 43.5513C605.999 42.8512 606.099 42.1514 606.199 41.4514C605.799 44.2514 605.099 46.9513 603.999 49.5513C604.299 48.9513 604.499 48.3513 604.799 47.6513C603.699 50.0513 602.399 52.3512 600.799 54.5513C601.199 54.0513 601.599 53.4514 601.999 52.9514C600.399 55.0514 598.499 56.9513 596.399 58.5513C596.899 58.1512 597.499 57.7513 597.999 57.3513C595.899 58.9513 593.599 60.3513 591.099 61.3513C591.699 61.0513 592.299 60.8512 592.999 60.5513C590.399 61.6512 587.699 62.3514 584.899 62.7514C585.599 62.6514 586.299 62.5514 586.999 62.4514C584.299 62.7514 581.499 62.7514 578.799 62.4514C579.499 62.5514 580.199 62.6514 580.899 62.7514C578.099 62.3514 575.399 61.6512 572.799 60.5513C573.399 60.8512 573.999 61.0513 574.699 61.3513C572.299 60.2513 569.999 58.9513 567.799 57.3513C568.299 57.7513 568.899 58.1512 569.399 58.5513C567.299 56.9513 565.399 55.0514 563.799 52.9514C564.199 53.4514 564.599 54.0513 564.999 54.5513C563.399 52.4513 561.999 50.1513 560.999 47.6513C561.299 48.2513 561.499 48.8512 561.799 49.5513C560.699 46.9513 559.999 44.2514 559.599 41.4514C559.699 42.1514 559.799 42.8512 559.899 43.5513C559.599 40.8512 559.599 38.0513 559.899 35.3513C559.799 36.0513 559.699 36.7514 559.599 37.4514C559.999 34.6514 560.699 31.9513 561.799 29.3513C561.499 29.9513 561.299 30.5514 560.999 31.2514C562.099 28.8514 563.399 26.5513 564.999 24.3513C564.599 24.8513 564.199 25.4514 563.799 25.9514C565.399 23.8514 567.299 21.9513 569.399 20.3513C568.899 20.7513 568.299 21.1513 567.799 21.5513C569.899 19.9513 572.199 18.5513 574.699 17.5513C574.099 17.8513 573.499 18.0513 572.799 18.3513C575.399 17.2513 578.099 16.5513 580.899 16.1513C580.199 16.2513 579.499 16.3514 578.799 16.4514C581.499 16.1514 584.299 16.1514 586.999 16.4514C586.299 16.3514 585.599 16.2513 584.899 16.1513C587.699 16.5513 590.399 17.2513 592.999 18.3513C592.399 18.0513 591.799 17.8513 591.099 17.5513C593.499 18.6513 595.799 19.9513 597.999 21.5513C597.499 21.1513 596.899 20.7513 596.399 20.3513C598.499 21.9513 600.399 23.8514 601.999 25.9514C601.599 25.4514 601.199 24.8513 600.799 24.3513C602.399 26.4513 603.799 28.7514 604.799 31.2514C604.499 30.6514 604.299 30.0513 603.999 29.3513C605.099 31.9513 605.799 34.6514 606.199 37.4514C606.099 36.7514 605.999 36.0513 605.899 35.3513C606.199 36.7513 606.199 38.0514 606.199 39.4514C606.199 41.4514 607.099 43.5514 608.499 44.9514C609.899 46.3514 612.099 47.3514 613.999 47.2514C618.199 47.0514 621.899 43.8514 621.799 39.4514C621.799 31.6514 619.399 23.6513 614.899 17.3513C613.599 15.5513 612.299 13.8513 610.799 12.3513C609.299 10.7513 607.599 9.45135 605.899 8.15135C602.799 5.75135 599.399 4.15145 595.799 2.75145C592.099 1.35145 588.099 0.751252 584.099 0.551252C580.199 0.451252 576.099 0.951398 572.299 1.9514C564.999 4.0514 558.099 8.35135 553.299 14.1513C551.899 15.8513 550.599 17.5514 549.499 19.4514C548.299 21.3514 547.499 23.4514 546.599 25.4514C545.099 29.0514 544.399 32.9513 544.099 36.8513C543.499 44.6513 545.499 52.8514 549.599 59.4514C553.499 65.8514 559.399 71.3514 566.199 74.4514C568.199 75.3514 570.299 76.2513 572.399 76.8513C574.699 77.4513 576.999 77.8513 579.299 78.0513C583.199 78.5513 587.199 78.1513 591.099 77.3513C598.599 75.8513 605.699 71.7514 610.999 66.2514C616.199 60.7514 620.099 53.6513 621.199 46.1513C621.499 43.8513 621.799 41.6513 621.799 39.3513C621.799 37.3513 620.899 35.2513 619.499 33.8513C618.099 32.4513 615.899 31.4513 613.999 31.5513C609.799 31.7513 606.299 35.0514 606.199 39.4514Z"
        fill="black" />
    <path
        d="M582.999 70.5511C600.175 70.5511 614.099 56.6273 614.099 39.4513C614.099 22.2752 600.175 8.3512 582.999 8.3512C565.823 8.3512 551.899 22.2752 551.899 39.4513C551.899 56.6273 565.823 70.5511 582.999 70.5511Z"
        fill="black" />
    <g opacity="0.25">
        <path
            d="M591.599 9.55115C599.999 15.1511 605.599 24.6511 605.599 35.5511C605.599 52.7511 591.699 66.6512 574.499 66.6512C571.499 66.6512 568.699 66.2513 565.999 65.4513C570.899 68.6513 576.799 70.5511 583.099 70.5511C600.299 70.5511 614.199 56.6513 614.199 39.4513C614.099 25.2513 604.599 13.2511 591.599 9.55115Z"
            fill="black" />
    </g>
    <g opacity="0.25">
        <path
            d="M574.899 23.0511C570.499 25.8511 565.699 26.2511 564.199 23.8511C562.699 21.4511 564.999 17.2512 569.299 14.4512C573.599 11.6512 578.499 11.2512 579.999 13.6512C581.599 15.9512 579.299 20.2511 574.899 23.0511Z"
            fill="white" />
    </g>
    <g opacity="0.25">
        <path
            d="M561.599 28.7513C561.599 30.1513 560.399 31.3512 558.999 31.3512C557.599 31.3512 556.399 30.1513 556.399 28.7513C556.399 27.3513 557.599 26.1512 558.999 26.1512C560.399 26.1512 561.599 27.3513 561.599 28.7513Z"
            fill="white" />
    </g>
    <path
        d="M591.966 209.69C1115.17 209.69 1165.82 574.421 1165.82 908.941C1165.82 1207.6 937.478 1285.46 591.966 1285.46C256.076 1285.46 0.183533 1207.6 0.183533 908.941C0.183533 574.421 68.7586 209.69 591.966 209.69Z"
        fill="black" />
    <path
        d="M1015.49 619.982H645.314L695.713 875.169H1015.48L1015.49 619.982ZM625.406 587.251H1031.86C1040.91 587.251 1048.23 594.576 1048.23 603.612V634.502H1106.96C1116 634.502 1123.33 641.826 1123.33 650.863C1123.33 659.908 1116 667.233 1106.96 667.233H1048.23V891.539C1048.23 900.576 1040.91 907.9 1031.86 907.9H682.264V907.891C674.581 907.9 667.729 902.474 666.211 894.667L630.626 714.486H535.366L499.773 894.667C498.255 902.474 491.394 907.9 483.719 907.891V907.9H134.127C125.095 907.9 117.76 900.576 117.76 891.539V667.233H59.0412C50.001 667.233 42.6655 659.908 42.6655 650.863C42.6655 641.826 50.001 634.502 59.0412 634.502H117.76V603.612C117.76 594.576 125.095 587.251 134.127 587.251H625.406ZM624.168 681.755L611.965 619.982H554.026L541.831 681.755H624.168ZM520.673 619.982H150.521V875.169H470.285L505.732 695.683C505.809 695.166 505.919 694.649 506.038 694.131L520.673 619.982Z"
        fill="white" />
    <rect x="794.273" y="665.778" width="86.0048" height="159.857" rx="16" fill="white" />
    <rect x="282.918" y="665.778" width="86.0048" height="159.857" rx="16" fill="white" />
</svg>